# xmcd
#
# Track frame offsets:
# 150
# 15612
# 40885
# 52100
# 77447
# 93067
# 115645
# 133267
# 149392
# 176242
# 187042
# 201967
# 214647
# 229722
# 243367
# 258127
# 270535
# 283212
# 301615
# 314432
# 337010
#
# Disc length: 4634 seconds
#
#
# Revision: 7
# Processed by: cddbd v1.5.2PL0 Copyright (c) Steve Scherf et al.
# Submitted via: FreeRIP 2.945 
#
DISCID=2d121815
DTITLE=Various Artist - Frett'n The Blues
DYEAR=2000
DGENRE=Blues
TTITLE0=Poison Ivy - Buddy Guy
TTITLE1=One Room Country Shack - Buddy Guy
TTITLE2=Marry Had A Little Lamb - Buddy Guy
TTITLE3=Sweet Little Angel - Buddy Guy
TTITLE4=(I Got A) Stomach Ache - Buddy Guy with Junior Wells
TTITLE5=Vietcong Blues - Buddy Guy with Junior Wells
TTITLE6=Everything's Going To Turn Out Alright - The Otis Rush Blues Band
TTITLE7=Rock - The Otis Rush Blues Band
TTITLE8=It's My Own Fault - The Otis Rush Blues Band
TTITLE9=It's A Mean Old World - The Otis Rush Blues Band
TTITLE10=Dust My Broom - Homesick James and His Dusters
TTITLE11=That's The Truth - J.B. Hutto and His Hawks
TTITLE12=Long Distance Call - John Hammond with Robbie Robertson
TTITLE13=Who Do You Love - John Hammond with Robbie Robertson
TTITLE14=Rambling Blues - John Hammond with Robbie Robertson
TTITLE15=Baby Please Don't Go - Lightnin Hopkins
TTITLE16=I Can't Quit You Baby/Stop Now Baby - John Lee Hooker
TTITLE17=Walkin' Blues - Muddy Waters
TTITLE18=I Can't Be Satisfied - Muddy Waters
TTITLE19=Nineteen Years Old - Muddy Waters
TTITLE20=Down In The Bottom - The Siegel-Schwall Band
EXTD=YEAR: 2000
EXTT0=
EXTT1=
EXTT2=
EXTT3=
EXTT4=
EXTT5=
EXTT6=
EXTT7=
EXTT8=
EXTT9=
EXTT10=
EXTT11=
EXTT12=
EXTT13=
EXTT14=
EXTT15=
EXTT16=
EXTT17=
EXTT18=
EXTT19=
EXTT20=
PLAYORDER=
